<?xml version="1.0" encoding="UTF-8" standalone="no"?>
<svg
   xmlns:dc="http://purl.org/dc/elements/1.1/"
   xmlns:cc="http://creativecommons.org/ns#"
   xmlns:rdf="http://www.w3.org/1999/02/22-rdf-syntax-ns#"
   xmlns:svg="http://www.w3.org/2000/svg"
   xmlns="http://www.w3.org/2000/svg"
   xmlns:sodipodi="http://sodipodi.sourceforge.net/DTD/sodipodi-0.dtd"
   xmlns:inkscape="http://www.inkscape.org/namespaces/inkscape"
   width="210mm"
   height="297mm"
   viewBox="0 0 210 297"
   version="1.1"
   id="svg8"
   sodipodi:docname="логотип1.svg"
   inkscape:version="1.0.2 (e86c870879, 2021-01-15)">
  <defs
     id="defs2">
    <filter
       inkscape:collect="always"
       style="color-interpolation-filters:sRGB"
       id="filter1146"
       x="-1.641689e-05"
       width="1.0000328"
       y="-2.3119362e-05"
       height="1.0000462">
      <feGaussianBlur
         inkscape:collect="always"
         stdDeviation="0.0011713761"
         id="feGaussianBlur1148" />
    </filter>
  </defs>
  <sodipodi:namedview
     id="base"
     pagecolor="#ffffff"
     bordercolor="#666666"
     borderopacity="1.0"
     inkscape:pageopacity="0.0"
     inkscape:pageshadow="2"
     inkscape:zoom="0.98994949"
     inkscape:cx="193.78642"
     inkscape:cy="657.32709"
     inkscape:document-units="mm"
     inkscape:current-layer="layer1"
     inkscape:document-rotation="0"
     showgrid="false"
     inkscape:window-width="1920"
     inkscape:window-height="1032"
     inkscape:window-x="0"
     inkscape:window-y="0"
     inkscape:window-maximized="1" />
  <metadata
     id="metadata5">
    <rdf:RDF>
      <cc:Work
         rdf:about="">
        <dc:format>image/svg+xml</dc:format>
        <dc:type
           rdf:resource="http://purl.org/dc/dcmitype/StillImage" />
        <dc:title></dc:title>
      </cc:Work>
    </rdf:RDF>
  </metadata>
  <g
     inkscape:label="Шар 1"
     inkscape:groupmode="layer"
     id="layer1">
    <path
       id="path144"
       style="fill:none;stroke:#000000;stroke-width:1;stroke-linecap:butt;stroke-linejoin:miter;stroke-opacity:1;filter:url(#filter1146);stroke-miterlimit:4;stroke-dasharray:none"
       d="m 138.76296,168.42781 1.62192,-0.64525 2.31093,-0.8822 1.20109,-0.72592 c 0,0 0.6675,-0.69424 0.52634,-0.97773 -0.14117,-0.28348 -0.34297,-1.77889 -0.48472,-2.00877 -0.14174,-0.22988 -0.45835,-2.78968 -0.45835,-2.78968 l 1.20985,5.23179 0.74851,1.82874 0.96228,2.26531 1.06003,2.51318 1.5119,3.51589 1.7877,3.89746 1.93664,4.19446 1.16793,2.6963 1.03267,2.65213 0.81619,1.83182 0.93101,2.08888 1.10329,2.49257 1.23317,2.74843 0.99358,1.66124 0.67982,1.0742 m 1.17529,2.37233 c 0,0 -1.00528,-2.39702 -1.21123,-2.48929 -0.20596,-0.0923 -1.77644,-0.46965 -1.77644,-0.46965 l -1.6531,0.55079 -0.95818,0.55794 -1.73909,1.59985 m 18.70968,-2.18654 1.95382,1.16427 1.58805,1.29718 1.48869,1.19374 0.95445,0.84997 0.89651,1.68139 m 0.70956,-5.96255 1.57965,0.83868 1.22846,0.59675 1.07098,0.73824 0.86279,0.6308 0.57791,1.34878 m 5.84892,-6.94933 -1.96126,-0.30212 -2.34486,-0.34482 -2.23342,0.32368 -1.70857,0.46301 -1.50289,1.10229 -0.76782,0.67023 -0.64989,0.88381 -1.5269,-0.55895 -1.74333,-0.28231 -1.74442,-0.26696 -1.29903,0.0252 -0.67952,0.0745 -0.59788,0.78452 -1.60752,-0.0875 -2.06838,-0.0693 -2.17971,0.15772 -1.71356,0.31096 -1.82064,0.99826 -1.11015,0.61307 -0.87168,0.51369 0.38359,1.90063 m -57.34609,-37.33358 2.14198,1.01616 1.72067,0.6514 1.47569,0.59495 1.54204,0.38401 1.35894,0.47084 1.36662,0.31939 1.2151,0.19858 1.26675,0.0639 1.16219,0.0488 1.62561,0.0615 1.73053,-0.0564 1.93233,-0.13363 2.04585,-0.18889 2.6962,-0.65027 2.09058,-0.50019 1.92297,-0.33994 1.89694,-0.4906 1.8539,-0.43435 1.80589,-0.39916 1.04465,-0.21833 0.71249,1.8581 0.82063,1.5248 0.74592,1.39737 0.56051,1.45595 0.56342,1.11702 0.62736,1.24636 0.65214,1.29743 0.64619,1.25703 0.5698,1.25015 0.67781,1.35052 0.26158,0.72461 0.6097,1.29696 0.50174,1.23086 0.58602,1.25981 0.76654,1.42647 0.81879,1.88421 1.04132,2.08795 0.92471,2.01809 0.92513,2.23222 0.72748,1.87784 0.91786,1.8533 0.77409,2.24028 0.2978,0.89749 1.04737,1.77566 0.98343,1.51578 0.45933,0.93801 0.14763,0.41951 1.14063,-0.23189 1.719,-0.27406 0.87162,-0.80679 0.91624,-0.44678 0.43638,-0.73847 0.89777,1.67109 1.02256,1.51327 1.00072,1.41951 1.46732,0.1925 2.41282,-0.42159 1.97174,-0.35284 2.02321,-0.46029 1.85285,-0.46772 1.64233,-0.35943 1.72936,-0.3658 0.95999,-0.33792 0.8889,-0.18174 1.67077,-0.49299 1.70142,-0.46758 1.59104,-0.40485 1.06612,-0.44388 1.98077,-0.53916 1.55329,-0.48318 1.75681,-0.38007 1.48219,-0.64052 1.30463,-1.15825 M 73.209824,165.5202 l -0.178472,2.84708 -0.782117,3.10619 -1.227224,3.37911 -0.947531,2.19829 -1.127279,2.2588 -1.056738,2.3933 -1.115369,2.17601 -1.054481,2.09324 -0.4224,1.76307 -0.572743,3.10031 0.04666,2.5806 -0.08513,2.18634 -0.230891,2.14359 0.06272,4.26241 m 17.800927,4.04597 c 0,0 2.30016,-0.85782 2.605278,-0.90507 0.305115,-0.0472 2.596443,-0.38627 2.596443,-0.38627 l 2.981696,-0.051 h 1.311135 l 2.816135,0.43712 1.844921,0.40651 1.246833,0.67418 m -6.970488,7.47887 c 0,0 -0.875742,-1.82371 -1.053904,-2.05453 -0.178163,-0.23082 -1.946852,-2.24415 -1.946852,-2.24415 l -1.939269,-1.49654 -1.557943,-0.7883 -1.933985,-1.07082 -2.926554,-0.8236 -1.654074,-0.14174 -2.11868,-0.0401 -1.454497,0.0852 -1.2437,0.84869 m -16.121475,-10.35311 0.97486,-0.42364 1.002961,0.0169 1.112899,0.93808 1.287206,1.0656 1.305612,1.00158 c 0,0 0.899949,1.03847 1.110052,1.31515 0.210103,0.27668 0.66353,0.89585 0.868889,1.07744 0.205356,0.1816 0.05557,1.38758 0.05557,1.38758 l -0.06777,1.98369 1.966218,-0.41745 1.981716,0.10901 1.588705,0.59336 1.647425,0.79658 1.287133,0.9092 1.47022,1.59213 1.652668,1.45446 1.037243,1.30394 0.642322,1.43603 0.289841,1.5048 m -5.961182,-61.73936 -0.04761,1.25992 0.25233,1.10956 0.298173,1.17007 0.467722,2.10631 0.433896,2.13131 0.103134,1.6185 0.07975,1.83842 -0.110361,1.73022 -0.320572,1.02096 -1.064704,0.99317 -1.762212,1.62043 -1.73305,2.56586 -1.283647,2.04665 -1.582561,2.15444 -1.553747,2.46965 -1.569156,2.37503 -1.053068,2.41255 -0.848104,2.17937 -1.237784,2.48178 -1.274268,3.09761 -0.620821,2.33427 -0.493519,2.0601 -0.332412,1.3188 -0.03835,2.19144 1.110425,1.91277 1.077642,1.24598 1.007462,0.94139 c 0,0 1.726967,0.96265 1.774214,1.17609 0.04725,0.21343 1.501799,0.7845 1.501799,0.7845 l 1.217091,0.11015 0.09424,1.94598 0.244314,1.28918 0.799774,1.08932 1.270175,1.19931 1.600835,1.00193 1.336085,0.72178 2.160243,0.65394 1.735088,0.50863 2.372603,0.60887 1.950133,0.26312 0.924433,0.6062 1.654418,0.0472 1.779992,0.0862 1.299827,0.0871 1.713029,-0.087 1.815319,-0.0472 1.629828,0.0967 1.146731,-0.26484 0.773588,-0.0898 1.471851,0.003 1.481638,-0.24024 1.631193,-0.25288 0.9071,-2.74295 0.775266,-2.22358 0.577641,-1.85409 0.697823,-2.28581 0.542822,-1.8964 0.581162,-2.12997 0.51951,-2.06731 0.476363,-2.06002 0.50406,-2.1295 0.42522,-2.13064 0.5095,-2.69038 0.50224,-2.63038 0.46659,-2.51769 0.38173,-2.76222 0.36307,-2.77348 0.23477,-2.42408 0.34529,-2.18852 0.23563,-2.06371 0.32695,-2.14513 0.1584,-1.47283 0.38939,-2.15062 0.18898,-1.97571 m -45.436266,-15.2274 v 0 l 1.259391,-0.56734 m 29.051937,-24.84195 -0.65441,1.36581 -0.429701,1.54019 -0.372253,1.5404 -0.331171,1.70335 -0.160044,2.04638 -0.01815,2.09033 0.164653,1.85405 0.361291,1.33686 0.88554,1.29745 1.01959,1.11729 1.054325,0.36406 1.532493,0.0956 c 0,0 1.51108,0.0257 1.906979,-0.0832 0.395901,-0.10887 1.517727,-0.10887 1.517727,-0.10887 l 3.567049,-0.42228 1.27788,-0.19498 2.24611,-0.33405 c 0,0 2.02277,-0.71163 2.18855,-0.7446 0.16578,-0.033 2.07603,-0.68616 2.23902,-0.7995 0.16298,-0.11335 1.99515,-0.81277 1.99515,-0.81277 l 2.42515,-1.17297 1.1463,-0.67295 2.02388,-1.49888 c 0,0 1.32013,-1.38553 1.543,-1.64896 0.22288,-0.26343 1.53996,-2.35657 1.53996,-2.35657 l 1.27025,-2.34839 0.54685,-1.77658 c 0,0 0.51232,-1.84357 0.57438,-2.07271 0.0621,-0.22913 0.0621,-1.57583 0.0955,-1.89957 0.0334,-0.32373 0.10023,-2.47363 0.10023,-2.47363 0,0 0.22488,-1.92465 0.22488,-2.11523 0,-0.19058 0.18835,-2.90568 0.18835,-2.90568 l 0.20086,-1.31914 m -46.169806,1.97957 1.085249,-0.95607 1.173295,-0.49459 1.125199,-0.17652 1.507947,0.16704 1.297795,0.60816 0.763307,0.68719 0.502803,0.77083 0.283186,1.27787 m 88.560645,34.64998 2.27991,0.61159 1.86192,0.18918 1.74482,-0.70933 1.11673,-1.52591 c 0,0 0.53822,-1.58518 0.57163,-1.72557 0.0334,-0.14039 0.0994,-1.7634 0.0994,-1.7634 l 0.0853,-1.74188 0.2275,-1.60751 -0.66421,2.79699 -0.69707,1.23043 -1.28308,1.23046 -1.90801,-0.0598 -1.53712,-0.71197 -1.53838,-0.76695 -1.50233,-0.64416 m -111.168176,3.5034 2.018692,0.9017 1.917607,0.89877 2.680274,0.79065 2.478752,0.42648 c 0,0 1.541208,0.10273 1.937941,0.002 0.396732,-0.10022 2.099209,-0.248 2.099209,-0.248 l 1.865188,-0.0827 m 119.182933,50.83695 c 0,0 -2.06761,-3.22855 -2.44559,-4.11361 -0.37798,-0.88505 -1.40177,-3.39507 -2.14365,-4.50082 -0.74188,-1.10574 -2.74785,-5.05376 -2.74785,-5.05376 l -1.93939,-3.3888 -1.77674,-2.90211 -2.73214,-4.03059 -2.44723,-4.25014 -2.50778,-4.3244 -1.18547,-2.46234 -0.84564,-2.43712 -0.39962,-1.98238 -7.9e-4,-3.20256 -0.0112,-3.17767 -0.24518,-2.274 -0.44116,-3.73112 -1.14296,-5.19787 -3.14096,-6.54076 -2.65377,-4.49179 -3.55145,-3.9067 -4.88462,-4.40532 -4.80579,-3.38308 -4.41091,-2.89022 -5.59662,-2.81171 -4.39409,-1.53429 -5.15119,-1.5489 -4.73188,-0.8663 -5.12324,-0.67759 -0.54216,-0.25888 -2.69276,-5.95296 -2.99638,-4.35217 -3.4076,-1.698602 -3.81743,-0.334087 -2.87363,-0.8787 -3.01784,-1.224991 -3.01043,-1.927209 -2.778791,-1.517404 -2.891859,-1.191141 -3.009212,-0.278564 -2.612062,0.06711 -1.80753,0.326932 -1.360157,0.267269 -2.788428,0.706398 -3.124512,1.380879 -3.494561,1.86141 -2.099789,1.498608 -2.845358,1.299816 -3.425939,2.538606 -2.143315,3.57435 -2.194941,2.8142 -3.517151,4.58638 -2.612483,4.29939 -2.38697,3.50744 -2.530205,3.2862 -1.545434,1.39235 -2.879003,1.91846 -2.856037,1.57057 -2.827993,0.71674 -2.737445,-0.058 -2.274155,-0.78556 -1.898687,-2.032 -0.438179,-2.55267 -0.113824,-3.03348 0.548743,-3.62431 0.356492,-2.45876 1.086718,-4.10519 0.950121,-3.09411 0.553807,-2.17056 -0.192637,-1.63705 -0.556827,-1.80816 -1.093295,-1.41754 -1.82504,-1.367734 -1.472433,-0.77533 -2.39876,-0.383879 -1.599991,0.334087 -2.123133,0.825532 -1.934233,0.725784 -0.780428,0.20045 0.860168,1.42609 -0.102674,1.37677 -0.432023,1.70895 -0.1039,0.44014 1.423742,-0.50561 1.824022,-0.0668 1.30394,1.03273 0.807908,2.25371 -0.333229,2.27037 -1.321097,2.28761 -1.194768,1.93853 -1.197367,1.88092 -1.155151,1.88299 -1.148754,2.31388 -0.700212,2.21751 -0.285077,2.93685 0.02443,2.81016 0.555495,2.81905 1.257183,2.6857 1.469983,2.29109 1.815858,2.05457 1.817227,2.19439 1.788565,2.2742 1.99962,2.15789 2.180757,2.0024 1.988716,1.33692 2.238648,1.2101 2.389526,0.58325 2.641346,0.65001 2.450547,0.21753 2.319015,-0.0239 2.586037,-0.49944 2.697776,-0.85311 3.25622,-1.198 2.846374,-0.89461 2.010185,-0.82644 2.67825,-1.18382 2.531761,-1.07405 2.227672,-1.37575" />
    <path
       style="fill:#ffcc00;stroke-width:1.01015"
       d="m 273.20563,775.52861 c -6.03793,-4.73223 -19.34676,-8.19348 -25.24387,-6.5652 l -3.54169,0.9779 0.53084,-23.90917 c 0.72556,-32.67882 1.22397,-34.88069 14.10137,-62.29497 12.41491,-26.42973 16.15559,-36.98937 18.30286,-51.66755 2.66846,-18.24078 1.98492,-28.57749 -3.4302,-51.87309 -1.40864,-6.05987 -0.7064,-7.07106 4.91059,-7.07106 2.73719,0 4.9767,-0.40064 4.9767,-0.89031 0,-0.48967 -6.70489,-0.8306 -14.89975,-0.75762 -12.8454,0.1144 -15.82883,-0.17273 -21.63819,-2.08255 -6.64534,-2.18462 -17.53498,-7.23554 -16.84805,-7.81458 0.19413,-0.16364 6.48966,-2.91018 13.99004,-6.1034 16.08017,-6.84599 23.23106,-10.66378 23.23248,-12.40358 0.001,-1.75136 -0.51593,-1.61774 -4.85561,1.25412 -6.21421,4.11237 -28.63575,13.3643 -49.6916,20.50452 -19.30323,6.54589 -19.91053,6.6801 -30.30458,6.69676 -11.45822,0.0184 -26.11706,-2.91492 -33.84011,-6.77153 -11.16799,-5.57688 -21.8552,-15.21389 -34.94392,-31.51005 -3.55978,-4.43213 -8.51789,-10.39946 -11.01802,-13.26074 -6.136909,-7.0234 -12.692211,-19.70892 -14.20151,-27.48212 -2.159234,-11.12048 -0.145653,-29.40527 4.15878,-37.76476 0.659124,-1.28007 5.702899,-9.6548 11.20839,-18.61053 11.33256,-18.43456 12.68342,-22.84432 9.52857,-31.10516 -2.30183,-6.02728 -5.41794,-7.93036 -12.28095,-7.50026 l -5.430474,0.34032 0.689679,-4.04061 c 0.801422,-4.69529 0.760015,-7.2866 -0.161419,-10.10153 -0.584279,-1.78494 0.426292,-2.4176 8.674524,-5.43066 10.93968,-3.99623 16.94816,-4.25579 23.32558,-1.00765 9.92709,5.05605 14.2157,10.15709 15.86907,18.8753 0.88257,4.65378 0.55573,6.54081 -3.56572,20.58687 -7.18626,24.49106 -10.0788,47.36023 -7.60627,60.13707 1.14682,5.92624 6.43381,11.78522 12.58223,13.94348 7.92607,2.78225 20.85093,1.75347 29.05847,-2.31298 20.48416,-10.14892 29.5435,-19.58049 48.91012,-50.91973 3.20338,-5.18374 10.34939,-15.25891 15.88002,-22.38926 5.53062,-7.13036 12.0603,-16.21568 14.51039,-20.18961 4.65466,-7.54964 13.35876,-15.07202 21.25945,-18.37313 2.07158,-0.86556 7.39657,-3.90234 11.83331,-6.74839 10.77825,-6.91396 24.7229,-13.32748 35.07557,-16.13222 6.79899,-1.84197 11.16403,-2.30191 22.10865,-2.32954 l 13.63706,-0.0344 8.7458,4.18403 c 4.8102,2.30121 11.99251,6.28431 15.9607,8.85132 11.54101,7.46583 24.11635,11.99085 36.91281,13.28243 4.91062,0.49564 9.0772,1.7198 13.63706,4.00663 5.85453,2.93612 7.18547,4.208 12.28312,11.73807 3.14442,4.64483 7.82356,13.20776 10.39807,19.02874 4.15123,9.38589 4.61613,11.15776 4.10821,15.65736 -0.315,2.79058 -1.00953,11.89231 -1.5434,20.22607 -1.00746,15.72678 -2.95042,24.75698 -7.06938,32.85603 -3.96704,7.80034 -9.83856,15.75654 -14.85612,20.13077 -5.62083,4.90015 -25.48598,14.83635 -37.16061,18.5871 -10.5238,3.38101 -28.40437,5.92268 -42.78204,6.08131 l -11.46731,0.12653 -4.30561,-4.74464 c -5.02093,-5.53293 -5.58973,-7.69708 -5.58973,-21.26801 0,-10.37538 2.78714,-25.58291 5.75615,-31.40738 1.44612,-2.83693 1.06029,-4.94889 -0.57031,-3.12177 -5.64413,6.32432 -9.61952,41.1936 -5.75178,50.45041 2.28563,5.4703 6.81703,10.49933 10.58129,11.74334 8.28672,2.73856 44.82357,-1.92661 60.19025,-7.68534 23.78066,-8.9119 35.27958,-17.06273 43.9683,-31.16624 7.55149,-12.25756 9.72876,-20.26972 11.0553,-40.68262 0.61018,-9.38965 1.34402,-18.56205 1.63076,-20.38311 l 0.52132,-3.31101 5.25227,0.6423 c 30.0971,3.68058 59.67975,12.15423 80.65048,23.10152 34.08585,17.79373 67.41691,45.88884 80.65644,67.98618 8.3281,13.89993 16.2508,31.41928 18.38572,40.65603 3.46682,14.99927 3.9585,19.23169 4.75264,40.91117 0.73263,20.00026 0.95316,21.71838 3.85696,30.04827 3.27313,9.38938 20.35548,40.08518 31.06113,55.8147 11.43982,16.80824 37.06614,63.31692 35.66158,64.72147 -0.14662,0.14663 -2.53908,-0.18185 -5.31656,-0.72997 -6.54424,-1.29145 -17.88123,-0.2978 -23.13929,2.0281 -2.27773,1.00755 -5.92517,3.51428 -8.10543,5.57052 -3.67772,3.46855 -4.18826,3.65718 -7.06741,2.61127 -1.70683,-0.62004 -7.75208,-1.38292 -13.43388,-1.69529 -8.9739,-0.49336 -10.41403,-0.35043 -10.96611,1.08827 -0.53498,1.39413 -1.6976,1.56008 -7.34711,1.04871 -10.44989,-0.9459 -21.10465,0.96674 -28.72767,5.15687 l -6.50137,3.5736 -5.43573,-9.3619 c -5.55901,-9.57421 -13.67232,-26.95539 -21.81646,-46.73753 -2.51602,-6.11142 -9.02126,-20.88491 -14.45608,-32.82996 -15.67384,-34.44911 -22.80688,-52.24701 -25.20185,-62.882 -1.21988,-5.41694 -2.63523,-9.84898 -3.1452,-9.84898 -1.33059,0 -1.16593,2.42904 0.81128,11.96869 2.06211,9.94921 2.50687,9.2886 -9.71616,14.43176 -7.00098,2.94584 -17.97346,5.85065 -41.51983,10.99178 -4.72246,1.0311 -11.99556,2.62461 -16.16244,3.54111 -5.32021,1.17018 -12.3888,1.6603 -23.73858,1.64597 -14.34454,-0.0181 -17.18501,-0.31491 -25.25382,-2.63881 -11.64213,-3.35304 -27.86533,-9.68705 -28.38745,-11.08328 -0.22173,-0.59292 -0.027,-4.16813 0.43289,-7.94494 0.45981,-3.7768 0.47341,-7.09102 0.0302,-7.36492 -0.44318,-0.27391 -1.02287,0.54337 -1.28821,1.81615 -0.77696,3.72702 -5.01588,35.09325 -8.23062,60.903 -2.97426,23.87906 -13.24034,72.2309 -19.26371,90.72942 -1.24281,3.81682 -1.94347,4.72401 -3.24851,4.20605 -10.25768,-4.07117 -38.9018,-4.64952 -49.94473,-1.00841 -5.61041,1.84988 -6.12252,1.85888 -12.28763,0.21611 -8.23676,-2.19478 -23.59,-2.32937 -26.36415,-0.2311 -2.43193,1.83942 -2.51857,1.83768 -4.99129,-0.10031 z m 43.94163,-339.83405 c 0,-3.61002 -2.70076,-7.47374 -6.85703,-9.8097 -6.68198,-3.75548 -18.36337,-2.62984 -22.3288,2.15165 -2.37279,2.86109 -0.47411,2.97866 3.58287,0.22187 4.47832,-3.0431 11.79222,-3.54044 16.47256,-1.12014 3.55322,1.83744 7.1101,6.21104 7.1101,8.74271 0,1.03624 0.45457,1.88407 1.01015,1.88407 0.55558,0 1.01015,-0.93171 1.01015,-2.07046 z"
       id="path283"
       transform="scale(0.26458333)" />
    <path
       style="fill:#ffcc00;stroke-width:1.01015"
       d="m 582.13213,760.16699 c -6.6218,-17.72125 -16.80541,-40.17341 -42.38101,-93.43891 -7.42626,-15.46643 -13.50228,-28.50262 -13.50228,-28.96931 0,-0.4667 2.61377,-1.82113 5.80838,-3.00986 3.1946,-1.18873 7.7596,-3.24575 10.14444,-4.57115 l 4.33607,-2.40981 0.9677,2.54524 c 2.56802,6.75441 16.19171,38.00082 24.15957,55.41082 4.90501,10.71758 9.25475,20.56439 9.6661,21.88181 1.12832,3.61365 16.31687,37.71674 19.44547,43.66122 1.50555,2.86061 2.87957,5.50627 3.05337,5.87924 0.17381,0.37298 -0.63266,0.43005 -1.79216,0.12683 -2.85702,-0.74713 -10.63377,2.34855 -14.56009,5.7959 l -3.20851,2.81712 z"
       id="path285"
       transform="scale(0.26458333)" />
    <path
       style="fill:#ffcc00;stroke-width:1.01015"
       d="m 239.34634,751.36681 c -1.39952,-1.63893 -5.83158,-5.64524 -9.84903,-8.9029 -6.08306,-4.93261 -7.8134,-5.84833 -10.34804,-5.47632 -2.41507,0.35446 -2.94681,0.11738 -2.57498,-1.14805 0.25772,-0.87711 1.43821,-5.45858 2.62329,-10.18104 1.18509,-4.72246 4.34014,-13.35927 7.01122,-19.1929 2.67108,-5.83363 6.40098,-14.25104 8.28866,-18.70535 4.56847,-10.78008 31.5357,-51.38669 37.08454,-55.841 2.28196,-1.83183 4.14901,-2.83544 4.14901,-2.23026 0,0.60519 -0.7205,4.60409 -1.60111,8.88644 -2.25782,10.97961 -7.33153,23.98017 -17.80689,45.62732 -10.54493,21.79092 -12.822,30.20011 -13.00351,48.02174 -0.0623,6.11142 -0.40915,13.58905 -0.77089,16.61694 l -0.65771,5.50526 z"
       id="path287"
       transform="scale(0.26458333)" />
    <path
       style="fill:#ffe680;stroke-width:1.01015"
       d="m 625.02135,792.07603 c -3.37357,-2.63155 -10.94107,-15.83287 -11.1679,-19.48212 -0.22254,-3.58041 -0.0908,-3.71412 7.69344,-7.81119 l 7.91985,-4.16843 12.2832,-0.0488 c 11.85265,-0.0471 12.44,0.0528 16.75658,2.85161 11.585,7.51146 21.8566,17.71349 19.37713,19.24589 -2.01762,1.24695 -45.88328,10.67577 -49.66687,10.67577 -0.86718,0 -2.30513,-0.56821 -3.19543,-1.26269 z"
       id="path289"
       transform="scale(0.26458333)" />
    <path
       style="fill:#ffe680;stroke-width:1.01015"
       d="m 679.75075,779.09694 c -1.21113,-2.92394 -13.03351,-13.29902 -19.50532,-17.11748 -4.54443,-2.68128 -4.63331,-3.62123 -0.40392,-4.27165 8.83875,-1.35927 25.77938,4.02974 36.78065,11.70035 5.79924,4.0435 6.26638,6.44166 1.50729,7.73795 -2.02962,0.55283 -6.73176,1.85373 -10.44921,2.89089 l -6.759,1.88574 z"
       id="path291"
       transform="scale(0.26458333)" />
    <path
       style="fill:#ffe680;stroke-width:1.01015"
       d="m 703.03319,772.65073 c -1.01413,-2.66736 -4.39648,-5.23011 -11.87695,-8.99898 -2.91681,-1.46957 -5.3033,-3.25273 -5.3033,-3.96258 0,-0.70986 2.1688,-2.94459 4.81954,-4.96607 6.54966,-4.99483 14.953,-6.59144 26.02508,-4.94467 4.35727,0.64806 7.98793,1.28195 8.06812,1.40863 0.0802,0.12668 1.86224,3.09871 3.96008,6.60451 3.65656,6.11064 3.73662,6.43501 1.93646,7.84574 -3.61336,2.83167 -5.74783,3.68669 -16.21004,6.49345 l -10.54147,2.82802 z"
       id="path293"
       transform="scale(0.26458333)" />
    <path
       style="fill:#ffe680;stroke-width:1.01015"
       d="m 593.36164,782.02384 c -0.40418,-1.2772 -2.26014,-4.58895 -4.12434,-7.35946 -1.8642,-2.7705 -3.38946,-5.5576 -3.38946,-6.19356 0,-1.53159 6.14868,-6.16452 10.71164,-8.07105 5.71171,-2.3865 9.10405,-1.10665 11.89644,4.48825 3.03685,6.08473 3.9745,10.94475 2.36521,12.25935 -5.87935,4.80273 -7.89859,5.89605 -12.01011,6.50286 -4.32558,0.6384 -4.77512,0.50423 -5.44938,-1.62639 z"
       id="path295"
       transform="scale(0.26458333)" />
    <path
       style="fill:#ffe680;stroke-width:1.01015"
       d="m 340.56692,801.08914 c -3.71207,-6.57743 -11.41052,-13.65581 -20.19487,-18.5683 l -6.58962,-3.68513 3.95526,-1.443 c 10.51457,-3.83607 44.37771,-2.21518 49.7695,2.38226 0.19655,0.16759 -1.52531,5.95414 -3.82636,12.85898 l -4.18373,12.55426 -5.26502,0.63247 c -10.17115,1.22182 -10.33787,1.16409 -13.66516,-4.73154 z"
       id="path297"
       transform="scale(0.26458333)" />
    <path
       style="fill:#ffe680;stroke-width:1.01015"
       d="m 306.08072,807.68495 c -4.14205,-0.16553 -8.09834,-0.77182 -8.79175,-1.3473 -0.69341,-0.57548 -1.98888,-3.551 -2.87881,-6.61227 -1.3678,-4.70505 -2.8203,-6.73309 -9.39099,-13.11199 -7.39071,-7.17499 -7.67651,-7.61738 -5.8121,-8.99666 2.73619,-2.0242 17.35353,-1.90827 24.65274,0.19552 7.63875,2.20165 18.82894,7.89852 24.32376,12.38311 5.28817,4.31592 13.62636,15.25332 12.48829,16.38117 -0.88252,0.87458 -22.83831,1.57813 -34.59114,1.10842 z"
       id="path299"
       transform="scale(0.26458333)" />
    <path
       style="fill:#ffe680;stroke-width:1.01015"
       d="m 276.08941,800.94365 c -13.33865,-3.93701 -19.69978,-7.20325 -25.86349,-13.28008 -3.83167,-3.77766 -4.65453,-5.29566 -5.23253,-9.6529 -0.42023,-3.16784 -0.27879,-5.57738 0.36518,-6.22136 0.57808,-0.57808 3.89818,-1.0181 7.37799,-0.97782 9.17344,0.10616 15.9849,3.48724 26.2077,13.00898 9.74639,9.07801 12.65166,12.79516 13.5581,17.34693 0.61884,3.10753 0.49856,3.27809 -2.25041,3.19112 -1.5973,-0.0505 -7.97045,-1.58723 -14.16254,-3.41487 z"
       id="path301"
       transform="scale(0.26458333)" />
    <path
       style="fill:#ffe680;stroke-width:1.01015"
       d="m 233.3046,766.10194 c -10.95728,-6.67875 -18.98903,-17.30027 -17.65948,-23.35364 0.43361,-1.97423 1.44248,-3.14901 3.05097,-3.55272 1.90831,-0.47895 3.95906,0.66825 9.95961,5.57148 11.64936,9.51903 13.74027,12.48756 13.74027,19.50739 0,3.99148 -0.3983,5.83058 -1.26269,5.8302 -0.69448,-3.2e-4 -4.21738,-1.80154 -7.82868,-4.00271 z"
       id="path303"
       transform="scale(0.26458333)" />
    <path
       style="fill:#ffe680;stroke-width:1.01015"
       d=""
       id="path305"
       transform="scale(0.26458333)" />
    <path
       style="fill:#ffe680;stroke-width:1.01015"
       d=""
       id="path307"
       transform="scale(0.26458333)" />
    <path
       style="fill:#ffcc00;stroke-width:1.01015"
       d="m 656.1013,568.64866 c -3.97065,-1.22767 -4.00243,-1.27873 -5.7403,-9.22189 -0.96115,-4.39306 -1.62294,-8.11198 -1.47066,-8.26427 0.15229,-0.15229 3.72841,1.31782 7.94694,3.2669 10.30923,4.76316 14.60916,4.75701 18.80949,-0.0269 l 3.1351,-3.57068 v 3.25175 c 0,4.67788 -3.80134,11.85418 -7.4615,14.08607 -3.55284,2.16646 -9.18781,2.34382 -15.21907,0.47903 z"
       id="path309"
       transform="scale(0.26458333)" />
  </g>
</svg>
